HIERARCHY
ROOT SpineBase
{
  OFFSET 0.000000 0.000000 0.000000
  CHANNELS 6 Xposition Yposition Zposition Zrotation Xrotation Yrotation
  JOINT SpineMid
  {
    OFFSET 0.000000 30.688896 0.000000
    CHANNELS 3 Zrotation Xrotation Yrotation
    JOINT SpineShoulder
    {
      OFFSET 0.229958 22.765567 -0.721004
      CHANNELS 3 Zrotation Xrotation Yrotation
      JOINT Neck
      {
        OFFSET 0.191462 7.527515 -0.547523
        CHANNELS 3 Zrotation Xrotation Yrotation
        JOINT Head
        {
          OFFSET 4.028860 13.578353 1.249083
          CHANNELS 3 Zrotation Xrotation Yrotation
          End Site
          {
            OFFSET 0 0 0
          }
        }
      }
      JOINT ShoulderLeft
      {
        OFFSET -11.101996 -1.888699 -12.282893
        CHANNELS 3 Zrotation Xrotation Yrotation
        JOINT ElbowLeft
        {
          OFFSET -6.202810 -25.178770 -6.343625
          CHANNELS 3 Zrotation Xrotation Yrotation
          JOINT WristLeft
          {
            OFFSET 0.080970 -23.345416 -4.751119
            CHANNELS 3 Zrotation Xrotation Yrotation
            JOINT HandLeft
            {
              OFFSET 1.218321 -8.767983 0.668252
              CHANNELS 3 Zrotation Xrotation Yrotation
              JOINT HandTipLeft
              {
                OFFSET 0.513345 -8.306324 0.457933
                CHANNELS 3 Zrotation Xrotation Yrotation
                End Site
                {
                  OFFSET 0 0 0
                }
              }
              JOINT ThumbLeft
              {
                OFFSET 3.946989 0.418995 1.495816
                CHANNELS 3 Zrotation Xrotation Yrotation
                End Site
                {
                  OFFSET 0 0 0
                }
              }
            }
          }
        }
      }
      JOINT ShoulderRight
      {
        OFFSET 11.435313 -3.642166 13.090005
        CHANNELS 3 Zrotation Xrotation Yrotation
        JOINT ElbowRight
        {
          OFFSET 2.014463 -30.149672 5.028704
          CHANNELS 3 Zrotation Xrotation Yrotation
          JOINT WristRight
          {
            OFFSET 1.381376 -23.845870 -3.221278
            CHANNELS 3 Zrotation Xrotation Yrotation
            JOINT HandRight
            {
              OFFSET -0.388601 -1.203506 1.098102
              CHANNELS 3 Zrotation Xrotation Yrotation
              JOINT HandTipRight
              {
                OFFSET 0.160900 -9.184270 -0.556047
                CHANNELS 3 Zrotation Xrotation Yrotation
                End Site
                {
                  OFFSET 0 0 0
                }
              }
              JOINT ThumbRight
              {
                OFFSET 2.506326 -2.116274 0.217169
                CHANNELS 3 Zrotation Xrotation Yrotation
                End Site
                {
                  OFFSET 0 0 0
                }
              }
            }
          }
        }
      }
    }
  }
  JOINT HipLeft
  {
    OFFSET -3.667874 1.747967 -8.181835
    CHANNELS 3 Zrotation Xrotation Yrotation
    JOINT KneeLeft
    {
      OFFSET -6.293370 -36.910373 -0.209674
      CHANNELS 3 Zrotation Xrotation Yrotation
      JOINT AnkleLeft
      {
        OFFSET -5.735673 -35.037021 9.671273
        CHANNELS 3 Zrotation Xrotation Yrotation
        JOINT FootLeft
        {
          OFFSET 2.276874 -6.447534 -4.597482
          CHANNELS 3 Zrotation Xrotation Yrotation
          End Site
          {
            OFFSET 0 0 0
          }
        }
      }
    }
  }
  JOINT HipRight
  {
    OFFSET 6.422922 0.213884 1.725309
    CHANNELS 3 Zrotation Xrotation Yrotation
    JOINT KneeRight
    {
      OFFSET 2.423082 -37.485096 0.970227
      CHANNELS 3 Zrotation Xrotation Yrotation
      JOINT AnkleRight
      {
        OFFSET -0.395548 -36.793688 10.633803
        CHANNELS 3 Zrotation Xrotation Yrotation
        JOINT FootRight
        {
          OFFSET 3.665375 -6.341284 -3.776222
          CHANNELS 3 Zrotation Xrotation Yrotation
          End Site
          {
            OFFSET 0 0 0
          }
        }
      }
    }
  }
}
MOTION
Frames: 13
Frame Time: 0.033333
-106.614895 71.686850 276.409374 -27.379551 -11.092345 -19.450763 0.049500 -0.246875 15.933000 0.480840 -0.087980 -0.965664 0.081907 7.174307 6.868808 0.000000 0.000000 0.000000 -9.569402 -2.841905 14.349021 13.317603 2.708934 -7.651765 -3.577651 10.440760 -4.167917 7.209174 -1.741383 0.536671 0.000000 0.000000 0.000000 0.000000 0.000000 0.000000 53.209432 33.867126 -6.478253 15.585021 -7.477157 -3.997469 -8.083698 32.041288 13.645486 2.296675 -10.153735 -16.175401 0.000000 0.000000 0.000000 0.000000 0.000000 0.000000 11.791594 19.952783 16.050213 -4.841850 -10.277126 -3.921921 -6.325065 4.463990 20.103689 0.000000 0.000000 0.000000 28.802290 38.369527 11.752092 -9.448039 -10.724118 -3.147273 -2.796863 28.975699 20.622191 0.000000 0.000000 0.000000
-106.413693 71.289093 276.049651 -28.170378 -11.412757 -19.369970 -0.058575 -0.248264 15.680502 0.442806 -0.085466 -0.997225 -0.201061 7.177080 7.217903 0.000000 0.000000 0.000000 -8.633370 -2.079686 14.443449 12.997236 2.712608 -7.404649 -5.462987 9.507039 -4.454914 9.007453 -0.872855 0.907698 0.000000 0.000000 0.000000 0.000000 0.000000 0.000000 54.244498 34.079285 -6.778562 14.102802 -7.212823 -4.266660 -20.466838 -8.796392 15.112615 36.848667 37.515504 -32.786415 0.000000 0.000000 0.000000 0.000000 0.000000 0.000000 10.318964 19.809383 16.377430 -3.644797 -9.022573 -4.278501 -7.434745 5.599419 23.196074 0.000000 0.000000 0.000000 30.278342 38.107256 10.903629 -10.068281 -10.039122 -3.293643 -2.772993 28.787139 20.901190 0.000000 0.000000 0.000000
-106.234728 70.817467 275.417982 -28.984849 -11.618728 -19.989995 0.043968 -0.168626 16.137843 0.502081 -0.059643 -1.020107 1.121935 8.413511 6.987247 0.000000 0.000000 0.000000 -7.957503 -1.196811 14.482672 12.203024 2.576716 -6.964534 -6.172553 10.120218 -4.260085 10.376151 -1.171035 0.951553 0.000000 0.000000 0.000000 0.000000 0.000000 0.000000 54.145936 33.471189 -6.607914 12.906178 -6.605860 -4.528454 -19.790364 -36.738736 21.714497 73.751328 62.232723 -77.927851 0.000000 0.000000 0.000000 0.000000 0.000000 0.000000 8.325315 20.025469 17.542274 -2.617951 -8.359611 -4.742130 -7.017840 5.353647 24.634462 0.000000 0.000000 0.000000 31.795081 38.480702 10.640098 -11.417028 -10.021958 -3.686386 -2.320301 28.975569 21.091524 0.000000 0.000000 0.000000
-106.377561 70.365453 274.730284 -29.633436 -11.572358 -21.238471 0.052044 -0.249395 17.287299 0.749250 -0.048930 -1.054482 0.755178 8.937486 7.157689 0.000000 0.000000 0.000000 -7.595818 -0.514578 14.522999 11.601937 2.795311 -6.512949 -5.455891 10.304570 -4.290720 10.650131 -2.946473 0.542982 0.000000 0.000000 0.000000 0.000000 0.000000 0.000000 53.564293 32.057951 -6.158277 11.497094 -5.048074 -5.044951 4.122911 -54.922739 50.183862 104.732627 84.250438 -130.228889 0.000000 0.000000 0.000000 0.000000 0.000000 0.000000 6.176987 20.212071 19.412005 -1.672471 -8.019914 -5.137651 -8.398381 1.091703 25.968271 0.000000 0.000000 0.000000 33.048723 39.181835 11.083808 -12.888500 -10.062702 -4.046540 -1.706301 29.056910 20.937799 0.000000 0.000000 0.000000
-106.731767 70.002338 274.001341 -29.639141 -11.258632 -23.130358 0.352390 -0.075635 19.249597 0.623732 -0.036287 -1.037838 0.473118 9.184034 7.072445 0.000000 0.000000 0.000000 -7.052874 0.083887 14.166619 10.646214 2.930024 -5.910113 -4.866755 12.312014 -3.406079 12.379190 -4.327051 0.496388 0.000000 0.000000 0.000000 0.000000 0.000000 0.000000 49.962740 30.002681 -4.831527 13.825347 -2.852152 -4.879858 22.855504 -38.542542 71.486512 61.913340 71.485241 -106.976224 0.000000 0.000000 0.000000 0.000000 0.000000 0.000000 3.674474 20.103420 22.026233 -1.161266 -8.017918 -5.528819 -6.415243 1.076989 25.705548 0.000000 0.000000 0.000000 33.151126 40.121221 12.637104 -14.284471 -10.243903 -4.355835 -0.604363 29.226490 20.272389 0.000000 0.000000 0.000000
-107.206398 69.687185 273.256734 -29.299492 -10.821381 -25.549156 0.553919 0.110742 21.829305 0.498438 -0.062766 -1.022062 -0.016972 9.338169 6.954785 0.000000 0.000000 0.000000 -6.450532 0.561412 13.669702 9.594679 3.021820 -5.318138 -1.884283 12.380269 -3.448033 12.615100 -5.198635 0.446188 0.000000 0.000000 0.000000 0.000000 0.000000 0.000000 45.472137 27.716487 -3.456713 17.708424 -1.029317 -4.488364 25.699228 -26.558094 76.033814 45.699079 43.127987 -96.687818 0.000000 0.000000 0.000000 0.000000 0.000000 0.000000 1.133535 19.824162 25.143196 -0.982374 -8.122099 -5.894097 -2.177875 4.550565 24.559119 0.000000 0.000000 0.000000 32.148460 41.331082 15.176922 -15.218385 -10.736518 -4.512850 0.862274 29.370529 18.954797 0.000000 0.000000 0.000000
-107.629032 69.357688 272.595347 -28.627448 -10.299663 -28.067785 0.798334 0.447251 24.585666 0.440647 -0.053478 -0.984876 -0.409578 8.911673 6.665842 0.000000 0.000000 0.000000 -6.133259 1.013090 13.039657 9.176479 2.232254 -5.070999 -3.577124 12.741804 -2.985455 11.792313 -5.022206 0.353312 0.000000 0.000000 0.000000 0.000000 0.000000 0.000000 41.175842 25.039155 -2.269248 22.226521 0.683925 -4.434235 24.719632 -4.360113 77.735072 22.159329 24.769566 -90.599832 0.000000 0.000000 0.000000 0.000000 0.000000 0.000000 -1.081680 19.359292 28.225315 -1.397065 -8.128041 -6.290141 3.872789 10.852296 22.641867 0.000000 0.000000 0.000000 30.376985 42.581509 18.233376 -16.024441 -11.640434 -4.673233 2.542308 29.718918 17.412046 0.000000 0.000000 0.000000
-108.547386 69.207255 271.898772 -27.272073 -9.580280 -30.185280 0.724245 0.605681 27.079441 0.316873 -0.070261 -0.941942 -0.331229 8.448953 6.166066 0.000000 0.000000 0.000000 -5.650597 1.419302 12.224187 9.477359 2.436560 -4.729937 -3.547622 4.198698 -5.713895 10.435922 1.696659 1.456619 0.000000 0.000000 0.000000 0.000000 0.000000 0.000000 37.558791 22.105961 -1.339090 26.745069 2.473351 -4.886032 18.225331 21.022720 71.239930 0.563648 8.742394 -81.822444 0.000000 0.000000 0.000000 0.000000 0.000000 0.000000 -2.485586 19.093011 30.650303 -3.373857 -7.699000 -6.857307 12.110691 16.649592 18.945472 0.000000 0.000000 0.000000 28.542248 43.229893 21.095052 -17.097168 -12.347488 -4.817999 4.437665 30.016440 15.614168 0.000000 0.000000 0.000000
-109.384147 69.075111 271.247129 -25.509970 -8.811762 -32.105209 0.627815 0.713472 29.405359 0.253791 -0.068257 -0.881877 -0.066135 7.622088 5.558180 0.000000 0.000000 0.000000 -5.777733 2.000314 11.453483 10.332977 1.841660 -4.608090 -5.341379 0.829860 -6.257506 10.549807 3.536058 1.734792 0.000000 0.000000 0.000000 0.000000 0.000000 0.000000 34.694413 19.228245 -0.680070 30.543245 4.497615 -5.915433 12.848962 39.689523 63.708079 -14.456428 -6.559317 -72.682257 0.000000 0.000000 0.000000 0.000000 0.000000 0.000000 -4.229676 19.020139 32.918979 -5.140257 -8.333036 -7.349866 21.875730 23.411639 13.336277 0.000000 0.000000 0.000000 26.455126 43.396045 23.941972 -18.391310 -12.647666 -5.054409 6.646807 30.064955 13.825111 0.000000 0.000000 0.000000
-111.052522 69.209526 270.601341 -23.396011 -7.851445 -32.684106 0.417443 0.678113 30.435533 0.152715 -0.061660 -0.817186 0.654225 6.191744 4.879725 0.000000 0.000000 0.000000 -5.033574 2.418748 10.304670 11.265634 1.618722 -4.421838 -5.297380 -3.984066 -6.693342 6.534972 9.468842 2.773224 0.000000 0.000000 0.000000 0.000000 0.000000 0.000000 33.161201 16.923428 -0.169960 33.686574 5.944596 -7.192120 7.939256 47.563125 56.231758 -16.435766 -18.752827 -63.239622 0.000000 0.000000 0.000000 0.000000 0.000000 0.000000 -4.503779 19.865979 33.475803 -7.924997 -9.906024 -7.819665 30.737602 29.596242 7.271985 0.000000 0.000000 0.000000 25.091336 42.326817 25.425569 -18.184676 -12.882883 -4.485062 7.516162 30.380098 11.884900 0.000000 0.000000 0.000000
-113.130752 69.483915 270.008417 -21.014742 -6.863713 -32.311684 0.358488 0.589415 30.476620 0.162303 -0.083196 -0.740442 0.946684 4.505045 4.316696 0.000000 0.000000 0.000000 -4.386859 2.382356 9.086283 12.240965 2.759181 -4.227112 -6.077523 -8.942705 -6.847670 4.389718 16.455560 4.002445 0.000000 0.000000 0.000000 0.000000 0.000000 0.000000 31.405414 14.459086 0.269631 36.524718 7.905893 -8.954095 4.700297 50.748749 55.045555 -16.566892 -24.707303 -60.071460 0.000000 0.000000 0.000000 0.000000 0.000000 0.000000 -4.766871 20.813098 33.019720 -10.230582 -11.670200 -8.165678 38.050345 32.549629 1.390015 0.000000 0.000000 0.000000 24.148889 40.526661 25.880811 -17.225128 -13.133185 -3.542087 7.645252 30.954104 10.020291 0.000000 0.000000 0.000000
-115.226992 69.879849 269.383061 -18.802964 -6.029391 -31.609977 0.189924 0.387270 30.104116 0.157154 -0.099206 -0.672680 2.449445 2.741642 3.760495 0.000000 0.000000 0.000000 -3.523017 2.462761 7.968477 12.752089 4.150716 -3.980976 -6.711581 -8.858049 -5.554498 4.039028 15.054166 3.343009 0.000000 0.000000 0.000000 0.000000 0.000000 0.000000 34.421153 14.619059 0.448376 34.689400 6.090746 -9.592689 0.909466 51.183482 49.172051 -9.059693 -26.306708 -52.853808 0.000000 0.000000 0.000000 0.000000 0.000000 0.000000 -4.327908 21.859121 32.015025 -12.592597 -13.462666 -8.442576 42.503762 34.905912 -2.668986 0.000000 0.000000 0.000000 22.649318 38.649363 26.211910 -14.768015 -13.765982 -2.104934 6.919273 31.659777 8.118543 0.000000 0.000000 0.000000
-118.057250 70.531028 268.650152 -16.500479 -5.351417 -30.831460 0.045308 0.103141 29.594031 0.228720 -0.107815 -0.594674 2.872381 1.532333 3.404959 0.000000 0.000000 0.000000 -2.723589 2.600828 6.883015 13.096964 5.752308 -3.813227 -6.523847 -7.425291 -3.825543 3.522977 13.824450 2.599396 0.000000 0.000000 0.000000 0.000000 0.000000 0.000000 36.353164 14.133834 0.636153 32.413376 5.167711 -10.432706 -0.232836 53.599319 46.649693 -11.467785 -31.406937 -48.860818 0.000000 0.000000 0.000000 0.000000 0.000000 0.000000 -3.876216 23.639739 30.838469 -14.580644 -16.331261 -8.462433 43.361052 35.383291 -5.056157 0.000000 0.000000 0.000000 22.315880 36.418857 25.799998 -13.008038 -13.206699 -0.702969 3.955232 33.736423 8.580081 0.000000 0.000000 0.000000
